PathFileType	4	(X/Y/Z)	C:\Users\Basilio\Documents\Thesis Gigler\squatting_fais\c3dfiles\038\SLS_front_pre3\markers_experimental.trc
DataRate	CameraRate	NumFrames	NumMarkers	Units	OrigDataRate	OrigDataStartFrame	OrigNumFrames
200.000000	200.000000	4	61	mm	200.000000	513	1368
Frame#	Time	FHD			LBHD			RBHD			C7			T10			CLAV			LSHO			LUUPA			LMUPA			LDUPA			LLEP			LMEP			LUL			LRFIN			RSHO			RUPA1			RMUPA			RDUPA			RLEP			RMEP			RRAD			RUL			RUFIN			LASI			RASI			USACR			LSACR			RSACR			LTHI1			LTHI2			LTHI3			LTHI4			LLFC			LMFC			LTIB1			LTIB2			LTIB3			LTIB4			LLMAL			LMMAL			LHEE			LMT1			LMT2			LMT5			RTHI			RTHI2			RTHI3			RTHI4			RLFC			RMFC			RTIB1			RTIB2			RTIB3			RTIB4			RLMAL			RMMAL			RHEE			RMT1			RMT2			RMT5			LRAD			
		X1	Y1	Z1	X2	Y2	Z2	X3	Y3	Z3	X4	Y4	Z4	X5	Y5	Z5	X6	Y6	Z6	X7	Y7	Z7	X8	Y8	Z8	X9	Y9	Z9	X10	Y10	Z10	X11	Y11	Z11	X12	Y12	Z12	X13	Y13	Z13	X14	Y14	Z14	X15	Y15	Z15	X16	Y16	Z16	X17	Y17	Z17	X18	Y18	Z18	X19	Y19	Z19	X20	Y20	Z20	X21	Y21	Z21	X22	Y22	Z22	X23	Y23	Z23	X24	Y24	Z24	X25	Y25	Z25	X26	Y26	Z26	X27	Y27	Z27	X28	Y28	Z28	X29	Y29	Z29	X30	Y30	Z30	X31	Y31	Z31	X32	Y32	Z32	X33	Y33	Z33	X34	Y34	Z34	X35	Y35	Z35	X36	Y36	Z36	X37	Y37	Z37	X38	Y38	Z38	X39	Y39	Z39	X40	Y40	Z40	X41	Y41	Z41	X42	Y42	Z42	X43	Y43	Z43	X44	Y44	Z44	X45	Y45	Z45	X46	Y46	Z46	X47	Y47	Z47	X48	Y48	Z48	X49	Y49	Z49	X50	Y50	Z50	X51	Y51	Z51	X52	Y52	Z52	X53	Y53	Z53	X54	Y54	Z54	X55	Y55	Z55	X56	Y56	Z56	X57	Y57	Z57	X58	Y58	Z58	X59	Y59	Z59	X60	Y60	Z60	X61	Y61	Z61	

514	2.565	-233.5792236328126	1568.5322265625	-1130.057739257813	-391.6128845214845	1526.231567382813	-1192.475219726563	-386.5715637207032	1515.948852539063	-1047.568725585938	-456.4353637695314	1357.681518554688	-1113.103393554688	-484.8616943359376	1077.203491210938	-1077.225341796875	-314.4251403808594	1322.817260742188	-1122.140258789063	-376.7758789062501	1361.43310546875	-1262.753662109375	-215.8588256835938	1299.518676757813	-1393.446411132813	-188.2074127197266	1334.09814453125	-1367.65380859375	-146.4083099365235	1306.903198242188	-1402.478515625	-85.04598999023439	1310.102783203125	-1404.272583007813	-74.25561523437501	1236.646850585938	-1379.636596679688	210.2659301757813	1324.656494140625	-1373.291748046875	272.7291564941407	1342.023071289063	-1283.084716796875	-358.4932250976563	1368.219970703125	-982.1566162109377	-207.2626190185547	1342.943725585938	-855.888366699219	-170.2252960205078	1351.219970703125	-886.4204101562502	-141.2576751708985	1338.849731445313	-834.7471923828127	-68.0038528442383	1334.244384765625	-821.3001708984377	-63.46634674072267	1255.9453125	-834.8857421875002	212.4780426025391	1319.280029296875	-883.741394042969	218.7916717529297	1338.129272460938	-815.9324340820315	294.3230590820313	1350.768676757813	-885.910095214844	-301.8693237304688	896.692321777344	-1161.604858398438	-339.4810180664063	923.3840332031252	-914.2319946289065	-488.6609497070314	914.1477050781252	-1055.456420898438	-490.8765258789064	880.6753540039065	-1082.280151367188	-498.0154113769532	883.0070800781252	-1025.818725585938	-193.7464752197266	613.5140991210939	-1228.01220703125	-126.3292999267578	560.3017578125001	-1229.055297851563	-88.20751953125001	586.5136718750001	-1208.137939453125	-125.4633865356446	501.564910888672	-1212.646362304688	-105.2719268798828	450.6584777832032	-1199.293823242188	-86.35021209716798	453.993133544922	-1083.652709960938	-140.8045806884766	283.0694274902344	-1099.593994140625	-206.0017242431641	258.9729614257813	-1156.005615234375	-175.321533203125	243.2396087646485	-1127.363525390625	-222.7987213134766	187.9082946777344	-1082.61767578125	-360.4123229980469	106.9993972778321	-1083.86767578125	-316.0635375976563	128.3778076171875	-1013.677612304688	-416.7114257812501	94.66339111328126	-1018.703186035156	-215.4280395507813	49.64012527465822	-1020.394958496094	-209.8072357177735	45.05080795288087	-1071.52978515625	-257.2498168945313	29.88339042663575	-1114.823608398438	-226.8160858154297	696.0513305664064	-847.619812011719	-160.7266693115235	686.2066040039064	-846.0155029296877	-139.6493377685547	711.5746459960939	-851.8640136718752	-121.6657791137696	610.2252807617189	-860.7041625976565	-10.0369930267334	531.8499145507814	-868.9661254882815	-7.146549701690676	531.3462524414064	-991.1933593750002	149.8122711181641	443.2367553710939	-891.1038208007815	154.7105865478516	332.0469970703126	-855.3037719726565	184.3134918212891	367.7063903808594	-864.5493164062502	230.2043457031251	342.0989990234376	-891.3126220703127	276.0079956054688	210.616195678711	-859.6970214843752	293.9721374511719	240.0255737304688	-939.0494384765627	281.8708496093751	134.0133514404297	-926.0720214843752	419.0762634277345	301.1142578125001	-902.9179687500002	409.9869995117189	302.2671508789063	-856.2039184570315	396.9842529296876	255.7305755615235	-814.3691406250002	nan	nan	nan	
515	2.57	-233.3332061767579	1568.171752929688	-1130.661865234375	-391.1432495117189	1525.776733398438	-1192.872314453125	-386.2388916015626	1515.239379882813	-1048.029663085938	-456.1433715820314	1357.111450195313	-1113.38623046875	-484.7965698242189	1076.601928710938	-1077.050415039063	-314.0452270507813	1321.939208984375	-1122.453002929688	-376.5551147460938	1360.516235351563	-1262.959716796875	-215.6970977783204	1298.5966796875	-1393.600463867188	-188.062484741211	1333.02685546875	-1368.021118164063	-146.7295532226563	1306.112670898438	-1402.644775390625	-84.45845031738283	1308.9658203125	-1404.43017578125	-74.06089019775392	1235.723999023438	-1379.85888671875	210.3716278076172	1323.723022460938	-1373.540649414063	272.8071594238282	1341.198364257813	-1283.420654296875	-357.9710083007813	1367.622680664063	-982.444519042969	-206.6976776123047	1342.332275390625	-856.2830810546877	-169.7962646484375	1350.634033203125	-886.8339843750002	-140.76806640625	1338.206665039063	-835.1033935546877	-67.4274368286133	1333.533081054688	-821.5247192382815	-63.12215042114259	1255.195434570313	-835.1301879882815	212.9852752685547	1318.536987304688	-883.9893188476565	219.2913208007813	1337.200317382813	-816.1857910156252	294.8819274902344	1349.846435546875	-886.2117309570315	-302.1428222656251	896.0352783203127	-1161.548828125	-339.4525451660157	922.6226196289065	-914.2601318359377	-488.7318115234376	913.6168212890627	-1055.180297851563	-491.0509033203126	879.998474121094	-1081.952026367188	-498.0843811035157	882.6525878906252	-1025.567749023438	-194.1578521728516	612.7423706054689	-1228.168090820313	-126.2611694335938	559.9125366210939	-1229.273071289063	-88.15369415283205	586.1830444335939	-1208.466918945313	-125.325798034668	501.1718750000001	-1213.057250976563	-105.0892944335938	450.5118103027345	-1199.568969726563	-85.8804397583008	453.5853881835939	-1084.12841796875	-140.6629638671875	282.7764587402344	-1099.686645507813	-206.0001525878907	258.8264465332032	-1156.097534179688	-175.2298736572266	243.066146850586	-1127.511596679688	-222.7149200439454	187.7085266113282	-1082.709106445313	-360.9583740234376	107.0724868774414	-1083.96435546875	-316.0260009765626	128.3721313476563	-1013.619140625	-416.6501464843751	94.65228271484376	-1018.623596191406	-215.4463958740235	49.65340423583986	-1020.390014648438	-209.807846069336	45.03560638427735	-1071.52587890625	-257.3011474609376	29.966215133667	-1114.761108398438	-226.1279754638672	695.6350708007814	-846.9019775390627	-160.5088653564453	685.6945190429689	-845.9747314453127	-139.5649566650391	711.0228271484376	-851.820739746094	-121.4991760253907	609.8277587890626	-860.7048339843752	-9.755981445312502	531.5681762695314	-869.0239868164065	-6.855006217956545	531.0223999023439	-991.2209472656252	150.3253631591797	443.077850341797	-891.2904052734377	155.1806945800782	331.8840026855469	-855.3267822265627	184.6593780517578	367.5467224121094	-864.5278320312502	230.7474365234376	342.1819152832032	-891.493835449219	276.7037658691407	210.618392944336	-859.9376220703127	294.6045532226563	240.0373840332032	-939.209899902344	282.6793212890626	133.9950256347657	-926.2500000000002	419.6459350585939	301.3069458007813	-903.0127563476565	410.5291442871095	302.4523010253907	-856.4475097656252	397.4606018066407	255.8358001708985	-814.5532836914065	nan	nan	nan	
516	2.575	-233.1535339355469	1566.691162109375	-1130.726440429688	-390.9744262695314	1524.904541015625	-1193.233276367188	-385.8173828125001	1514.41455078125	-1048.37158203125	-455.6621093750001	1356.3232421875	-1113.602294921875	-484.9409179687501	1075.906127929688	-1076.856689453125	-313.9836425781251	1320.977905273438	-1122.491821289063	-376.3586730957032	1359.655883789063	-1263.241943359375	-215.517807006836	1297.506713867188	-1393.823974609375	-187.926986694336	1332.06982421875	-1368.197265625	-146.5615844726563	1305.228637695313	-1402.855102539063	-84.2462615966797	1307.948364257813	-1404.655517578125	-73.88433837890626	1234.809814453125	-1379.991088867188	210.6394348144532	1322.803100585938	-1373.970581054688	272.9554748535157	1340.177490234375	-1283.795288085938	-357.4551086425782	1367.03173828125	-982.7891845703127	-206.2315521240235	1341.746826171875	-856.4373779296877	-169.2935943603516	1349.617431640625	-887.0325927734377	-140.033187866211	1337.468383789063	-835.3017578125002	-66.98136138916017	1333.075561523438	-821.708435058594	-62.60786056518556	1254.545288085938	-835.3156738281252	213.4210052490235	1317.590454101563	-884.1682128906252	219.8674621582032	1336.46923828125	-816.4692993164065	295.3837585449219	1348.790893554688	-886.3421630859377	-302.2314147949219	895.490173339844	-1161.59765625	-339.4132995605469	922.0728149414065	-914.0880126953127	-488.6923217773439	912.947448730469	-1054.930786132813	-492.6736450195314	879.7246704101565	-1081.965942382813	-498.1236877441407	881.841735839844	-1025.26904296875	-194.1184539794922	612.2687377929689	-1228.181396484375	-126.2673950195313	559.5936279296876	-1229.508422851563	-88.14305114746095	585.7388916015626	-1208.670043945313	-125.34423828125	500.8263244628907	-1213.1533203125	-105.5994567871094	449.4553833007814	-1199.84912109375	-85.43472290039064	453.4064941406251	-1084.54541015625	-140.5365142822266	282.5333862304688	-1099.709350585938	-205.9310150146485	258.6661987304688	-1156.152954101563	-174.8706512451172	243.5386047363282	-1127.249755859375	-222.6109771728516	187.4850311279297	-1082.639892578125	-360.4100341796876	107.0980453491211	-1083.759643554688	-315.9499206542969	128.3595886230469	-1013.672607421875	-416.895965576172	94.91735839843751	-1018.153930664063	-215.4553527832032	49.60791015625001	-1020.382263183594	-209.8147277832032	44.99401473999024	-1071.494140625	-257.2487487792969	29.92287063598634	-1114.748168945313	-226.2911529541016	695.1072387695314	-846.9865722656252	-160.4317474365235	685.2981567382814	-845.997497558594	-139.3315124511719	710.5436401367189	-851.8461914062502	-121.2236633300782	609.2962646484376	-860.7114868164065	-9.461168289184572	531.1702270507814	-869.050720214844	-6.591695308685305	530.7511596679689	-991.1887817382815	150.7871704101563	443.0536499023439	-891.366882324219	155.5105590820313	331.8211669921876	-855.3807373046877	185.3203582763672	367.5298461914063	-864.4282836914065	231.1838989257813	342.0332031250001	-891.6651000976565	277.1881408691407	209.9541320800782	-860.720397949219	295.2799072265626	239.982894897461	-939.3237304687502	283.2980346679688	134.1259155273438	-926.4578247070315	420.1292724609376	301.4921875000001	-903.0629882812502	411.1033325195314	302.6493530273438	-856.587829589844	398.0259399414064	256.0822753906251	-814.635437011719	nan	nan	nan	
517	2.58	-232.6803894042969	1566.2734375	-1131.275512695313	-390.5867614746095	1524.057983398438	-1193.656982421875	-385.2726440429689	1513.763671875	-1048.871826171875	-455.3953247070314	1355.583984375	-1113.697143554688	-484.8250122070314	1075.371948242188	-1076.532592773438	-313.8303222656251	1320.044189453125	-1122.735961914063	-376.2728271484376	1358.866943359375	-1263.379516601563	-215.5073852539063	1296.423095703125	-1393.989624023438	-187.7451477050782	1330.99609375	-1368.402709960938	-146.395980834961	1304.178466796875	-1403.00830078125	-84.23464202880861	1306.920288085938	-1404.894165039063	-73.69997406005861	1233.90625	-1380.105346679688	210.7728576660157	1321.72119140625	-1374.278198242188	273.5398864746094	1338.847412109375	-1284.064819335938	-356.7791442871094	1366.43212890625	-983.155456542969	-205.8713378906251	1341.373657226563	-856.6134033203127	-168.7459869384766	1349.167846679688	-887.2744140625002	-139.4552001953125	1337.080078125	-835.5345458984377	-66.57991027832033	1332.456176757813	-821.9550781250002	-62.19519042968751	1253.89013671875	-835.4670410156252	213.8146514892579	1316.650756835938	-884.4524536132815	220.4822540283204	1335.812744140625	-816.5371093750002	295.8960571289063	1347.984619140625	-886.7034301757815	-302.2569580078126	895.0026855468752	-1161.679565429688	-339.3865356445313	921.2191162109377	-913.9355468750002	-488.7075195312501	912.2899169921877	-1054.636962890625	-492.4161071777345	879.2094726562502	-1081.568603515625	-498.2318115234376	881.3938598632815	-1025.04541015625	-194.2144317626954	611.8529052734376	-1228.37841796875	-126.2916641235352	559.2158813476564	-1229.755981445313	-88.21277618408205	585.3429565429689	-1208.776245117188	-125.1318969726563	500.5155029296876	-1213.340942382813	-104.754379272461	449.9136657714845	-1199.900024414063	-85.01393890380861	453.1477966308595	-1084.912841796875	-140.3654022216797	282.3651123046876	-1099.907348632813	-205.884506225586	258.5364990234376	-1156.334228515625	-175.0923156738282	242.5983581542969	-1127.658569335938	-222.4844055175782	187.4079895019532	-1082.7578125	-360.3887939453126	107.1462554931641	-1083.687377929688	-315.9143981933594	128.3937683105469	-1013.576416015625	-416.6468505859376	94.6667938232422	-1018.588928222656	-215.3869628906251	49.55989456176759	-1020.368041992188	-209.8019561767579	44.96147918701173	-1071.507690429688	-257.2463073730469	29.9489917755127	-1114.76025390625	-226.2042846679688	694.7144775390626	-846.887634277344	-160.2711944580078	684.9751586914064	-845.934753417969	-139.0726928710938	710.1130371093751	-851.9033813476565	-120.9680404663086	608.8902587890626	-860.7567138671877	-9.042128562927248	530.6635131835939	-869.0635375976565	-6.282660961151125	529.5179443359376	-991.2883911132815	151.2224731445313	442.8444824218751	-891.4664306640627	156.0756225585938	331.7829895019532	-855.4807128906252	185.8022003173828	367.3870849609376	-864.4743652343752	231.7526397705079	341.9295959472657	-891.7608642578127	277.8352050781251	210.0085144042969	-860.819030761719	295.9368591308594	240.1126861572266	-939.5985107421877	283.8334960937501	134.28173828125	-926.1832275390627	420.6384277343751	301.6773071289063	-903.1714477539065	411.7893066406251	302.7776794433594	-856.764831542969	398.8316955566407	256.1990051269532	-814.9271240234377	nan	nan	nan	
